%TF.GenerationSoftware,KiCad,Pcbnew,(6.0.6)*%
%TF.CreationDate,2022-07-01T00:49:36+05:00*%
%TF.ProjectId,MouseBite,4d6f7573-6542-4697-9465-2e6b69636164,rev?*%
%TF.SameCoordinates,Original*%
%TF.FileFunction,Soldermask,Top*%
%TF.FilePolarity,Negative*%
%FSLAX46Y46*%
G04 Gerber Fmt 4.6, Leading zero omitted, Abs format (unit mm)*
G04 Created by KiCad (PCBNEW (6.0.6)) date 2022-07-01 00:49:36*
%MOMM*%
%LPD*%
G01*
G04 APERTURE LIST*
G04 Aperture macros list*
%AMRoundRect*
0 Rectangle with rounded corners*
0 $1 Rounding radius*
0 $2 $3 $4 $5 $6 $7 $8 $9 X,Y pos of 4 corners*
0 Add a 4 corners polygon primitive as box body*
4,1,4,$2,$3,$4,$5,$6,$7,$8,$9,$2,$3,0*
0 Add four circle primitives for the rounded corners*
1,1,$1+$1,$2,$3*
1,1,$1+$1,$4,$5*
1,1,$1+$1,$6,$7*
1,1,$1+$1,$8,$9*
0 Add four rect primitives between the rounded corners*
20,1,$1+$1,$2,$3,$4,$5,0*
20,1,$1+$1,$4,$5,$6,$7,0*
20,1,$1+$1,$6,$7,$8,$9,0*
20,1,$1+$1,$8,$9,$2,$3,0*%
G04 Aperture macros list end*
%ADD10C,1.400000*%
%ADD11O,1.400000X1.400000*%
%ADD12C,1.600000*%
%ADD13O,1.600000X1.600000*%
%ADD14R,2.400000X2.400000*%
%ADD15C,2.400000*%
%ADD16R,1.700000X1.700000*%
%ADD17O,1.700000X1.700000*%
%ADD18C,3.000000*%
%ADD19RoundRect,0.250001X1.099999X1.599999X-1.099999X1.599999X-1.099999X-1.599999X1.099999X-1.599999X0*%
%ADD20O,2.700000X3.700000*%
%ADD21C,2.000000*%
%ADD22C,1.500000*%
%ADD23R,8.500000X6.500000*%
%ADD24C,7.000000*%
%ADD25R,2.400000X1.600000*%
%ADD26O,2.400000X1.600000*%
%ADD27R,1.100000X4.600000*%
%ADD28R,10.800000X9.400000*%
%ADD29R,1.800000X1.800000*%
%ADD30O,1.800000X1.800000*%
%ADD31RoundRect,0.250001X-1.099999X-1.599999X1.099999X-1.599999X1.099999X1.599999X-1.099999X1.599999X0*%
%ADD32C,0.800000*%
G04 APERTURE END LIST*
D10*
%TO.C,R1*%
X141440000Y-65750000D03*
D11*
X149060000Y-65750000D03*
%TD*%
D12*
%TO.C,C8*%
X68175000Y-62750000D03*
D13*
X75675000Y-62750000D03*
%TD*%
D12*
%TO.C,C3*%
X103250000Y-99250000D03*
D13*
X95750000Y-99250000D03*
%TD*%
D14*
%TO.C,P8*%
X120500000Y-132250000D03*
D15*
X124000000Y-132250000D03*
X127500000Y-132250000D03*
X131000000Y-132250000D03*
X134500000Y-132250000D03*
X138000000Y-132250000D03*
%TD*%
D16*
%TO.C,J4*%
X117225000Y-83000000D03*
D17*
X119765000Y-83000000D03*
%TD*%
D18*
%TO.C,ATX*%
X72525000Y-134980000D03*
X110325000Y-134980000D03*
D19*
X110325000Y-127680000D03*
D20*
X106125000Y-127680000D03*
X101925000Y-127680000D03*
X97725000Y-127680000D03*
X93525000Y-127680000D03*
X89325000Y-127680000D03*
X85125000Y-127680000D03*
X80925000Y-127680000D03*
X76725000Y-127680000D03*
X72525000Y-127680000D03*
X110325000Y-122180000D03*
X106125000Y-122180000D03*
X101925000Y-122180000D03*
X97725000Y-122180000D03*
X93525000Y-122180000D03*
X89325000Y-122180000D03*
X85125000Y-122180000D03*
X80925000Y-122180000D03*
X76725000Y-122180000D03*
X72525000Y-122180000D03*
%TD*%
D21*
%TO.C,SW1*%
X65000000Y-92250000D03*
X65000000Y-98750000D03*
X60500000Y-92250000D03*
X60500000Y-98750000D03*
%TD*%
D12*
%TO.C,C4*%
X95500000Y-103750000D03*
D13*
X103000000Y-103750000D03*
%TD*%
D22*
%TO.C,Y1*%
X125900000Y-101600000D03*
X122100000Y-101600000D03*
D23*
X124000000Y-96850000D03*
%TD*%
D24*
%TO.C,H2*%
X59250000Y-81500000D03*
%TD*%
D10*
%TO.C,R1*%
X65060000Y-110250000D03*
D11*
X57440000Y-110250000D03*
%TD*%
D25*
%TO.C,U5*%
X90675000Y-62625000D03*
D26*
X90675000Y-65165000D03*
X90675000Y-67705000D03*
X90675000Y-70245000D03*
X90675000Y-72785000D03*
X90675000Y-75325000D03*
X90675000Y-77865000D03*
X98295000Y-77865000D03*
X98295000Y-75325000D03*
X98295000Y-72785000D03*
X98295000Y-70245000D03*
X98295000Y-67705000D03*
X98295000Y-65165000D03*
X98295000Y-62625000D03*
%TD*%
D16*
%TO.C,J1*%
X129750000Y-83000000D03*
D17*
X127210000Y-83000000D03*
%TD*%
D10*
%TO.C,R10*%
X103060000Y-93000000D03*
D11*
X95440000Y-93000000D03*
%TD*%
D27*
%TO.C,U3*%
X133710000Y-105275000D03*
X136250000Y-105275000D03*
D28*
X136250000Y-96125000D03*
D27*
X138790000Y-105275000D03*
%TD*%
D10*
%TO.C,R11*%
X107000000Y-93000000D03*
D11*
X114620000Y-93000000D03*
%TD*%
D10*
%TO.C,R2*%
X65060000Y-106750000D03*
D11*
X57440000Y-106750000D03*
%TD*%
D10*
%TO.C,R9*%
X95425000Y-107455000D03*
D11*
X103045000Y-107455000D03*
%TD*%
D25*
%TO.C,U1*%
X91075000Y-113375000D03*
D26*
X91075000Y-110835000D03*
X91075000Y-108295000D03*
X91075000Y-105755000D03*
X91075000Y-103215000D03*
X91075000Y-100675000D03*
X91075000Y-98135000D03*
X83455000Y-98135000D03*
X83455000Y-100675000D03*
X83455000Y-103215000D03*
X83455000Y-105755000D03*
X83455000Y-108295000D03*
X83455000Y-110835000D03*
X83455000Y-113375000D03*
%TD*%
D12*
%TO.C,C6*%
X86000000Y-62750000D03*
D13*
X78500000Y-62750000D03*
%TD*%
D12*
%TO.C,C7*%
X128000000Y-108750000D03*
D13*
X120500000Y-108750000D03*
%TD*%
D12*
%TO.C,C4*%
X111000000Y-72250000D03*
D13*
X103500000Y-72250000D03*
%TD*%
D10*
%TO.C,R11*%
X99500000Y-83000000D03*
D11*
X91880000Y-83000000D03*
%TD*%
D16*
%TO.C,J4*%
X89275000Y-93000000D03*
D17*
X86735000Y-93000000D03*
%TD*%
D10*
%TO.C,R3*%
X141440000Y-72500000D03*
D11*
X149060000Y-72500000D03*
%TD*%
D27*
%TO.C,U3*%
X72790000Y-70725000D03*
X70250000Y-70725000D03*
D28*
X70250000Y-79875000D03*
D27*
X67710000Y-70725000D03*
%TD*%
D14*
%TO.C,P8*%
X86000000Y-43750000D03*
D15*
X82500000Y-43750000D03*
X79000000Y-43750000D03*
X75500000Y-43750000D03*
X72000000Y-43750000D03*
X68500000Y-43750000D03*
%TD*%
D12*
%TO.C,C5*%
X102985000Y-111205000D03*
D13*
X95485000Y-111205000D03*
%TD*%
D25*
%TO.C,U2*%
X78325000Y-113375000D03*
D26*
X78325000Y-110835000D03*
X78325000Y-108295000D03*
X78325000Y-105755000D03*
X78325000Y-103215000D03*
X78325000Y-100675000D03*
X78325000Y-98135000D03*
X70705000Y-98135000D03*
X70705000Y-100675000D03*
X70705000Y-103215000D03*
X70705000Y-105755000D03*
X70705000Y-108295000D03*
X70705000Y-110835000D03*
X70705000Y-113375000D03*
%TD*%
D14*
%TO.C,P9*%
X59100000Y-42250000D03*
D15*
X59100000Y-45750000D03*
X59100000Y-49250000D03*
X59100000Y-52750000D03*
X59100000Y-56250000D03*
X59100000Y-59750000D03*
%TD*%
D14*
%TO.C,Amiga*%
X59100000Y-65600000D03*
D15*
X59100000Y-69100000D03*
%TD*%
D14*
%TO.C,P9*%
X147400000Y-133750000D03*
D15*
X147400000Y-130250000D03*
X147400000Y-126750000D03*
X147400000Y-123250000D03*
X147400000Y-119750000D03*
X147400000Y-116250000D03*
%TD*%
D12*
%TO.C,C7*%
X78500000Y-67250000D03*
D13*
X86000000Y-67250000D03*
%TD*%
D29*
%TO.C,D1*%
X150080000Y-59750000D03*
D30*
X139920000Y-59750000D03*
%TD*%
D24*
%TO.C,H2*%
X147250000Y-94500000D03*
%TD*%
D21*
%TO.C,SW1*%
X141500000Y-83750000D03*
X141500000Y-77250000D03*
X146000000Y-83750000D03*
X146000000Y-77250000D03*
%TD*%
D24*
%TO.C,H1*%
X59250000Y-132250000D03*
%TD*%
D22*
%TO.C,Y1*%
X80600000Y-74400000D03*
X84400000Y-74400000D03*
D23*
X82500000Y-79150000D03*
%TD*%
D12*
%TO.C,C3*%
X103250000Y-76750000D03*
D13*
X110750000Y-76750000D03*
%TD*%
D16*
%TO.C,J1*%
X76750000Y-93000000D03*
D17*
X79290000Y-93000000D03*
%TD*%
D24*
%TO.C,H1*%
X147250000Y-43750000D03*
%TD*%
D29*
%TO.C,D2*%
X139670000Y-54500000D03*
D30*
X149830000Y-54500000D03*
%TD*%
D12*
%TO.C,C5*%
X103515000Y-64795000D03*
D13*
X111015000Y-64795000D03*
%TD*%
D18*
%TO.C,ATX*%
X133975000Y-41020000D03*
X96175000Y-41020000D03*
D31*
X96175000Y-48320000D03*
D20*
X100375000Y-48320000D03*
X104575000Y-48320000D03*
X108775000Y-48320000D03*
X112975000Y-48320000D03*
X117175000Y-48320000D03*
X121375000Y-48320000D03*
X125575000Y-48320000D03*
X129775000Y-48320000D03*
X133975000Y-48320000D03*
X96175000Y-53820000D03*
X100375000Y-53820000D03*
X104575000Y-53820000D03*
X108775000Y-53820000D03*
X112975000Y-53820000D03*
X117175000Y-53820000D03*
X121375000Y-53820000D03*
X125575000Y-53820000D03*
X129775000Y-53820000D03*
X133975000Y-53820000D03*
%TD*%
D10*
%TO.C,R2*%
X141440000Y-69250000D03*
D11*
X149060000Y-69250000D03*
%TD*%
D12*
%TO.C,C6*%
X120500000Y-113250000D03*
D13*
X128000000Y-113250000D03*
%TD*%
D25*
%TO.C,U5*%
X115825000Y-113375000D03*
D26*
X115825000Y-110835000D03*
X115825000Y-108295000D03*
X115825000Y-105755000D03*
X115825000Y-103215000D03*
X115825000Y-100675000D03*
X115825000Y-98135000D03*
X108205000Y-98135000D03*
X108205000Y-100675000D03*
X108205000Y-103215000D03*
X108205000Y-105755000D03*
X108205000Y-108295000D03*
X108205000Y-110835000D03*
X108205000Y-113375000D03*
%TD*%
D29*
%TO.C,D1*%
X56420000Y-116250000D03*
D30*
X66580000Y-116250000D03*
%TD*%
D29*
%TO.C,D2*%
X66830000Y-121500000D03*
D30*
X56670000Y-121500000D03*
%TD*%
D14*
%TO.C,Amiga*%
X147400000Y-110400000D03*
D15*
X147400000Y-106900000D03*
%TD*%
D10*
%TO.C,R9*%
X111075000Y-68545000D03*
D11*
X103455000Y-68545000D03*
%TD*%
D10*
%TO.C,R10*%
X103440000Y-83000000D03*
D11*
X111060000Y-83000000D03*
%TD*%
D10*
%TO.C,R3*%
X65060000Y-103500000D03*
D11*
X57440000Y-103500000D03*
%TD*%
D25*
%TO.C,U2*%
X128175000Y-62625000D03*
D26*
X128175000Y-65165000D03*
X128175000Y-67705000D03*
X128175000Y-70245000D03*
X128175000Y-72785000D03*
X128175000Y-75325000D03*
X128175000Y-77865000D03*
X135795000Y-77865000D03*
X135795000Y-75325000D03*
X135795000Y-72785000D03*
X135795000Y-70245000D03*
X135795000Y-67705000D03*
X135795000Y-65165000D03*
X135795000Y-62625000D03*
%TD*%
D12*
%TO.C,C8*%
X138325000Y-113250000D03*
D13*
X130825000Y-113250000D03*
%TD*%
D25*
%TO.C,U1*%
X115425000Y-62625000D03*
D26*
X115425000Y-65165000D03*
X115425000Y-67705000D03*
X115425000Y-70245000D03*
X115425000Y-72785000D03*
X115425000Y-75325000D03*
X115425000Y-77865000D03*
X123045000Y-77865000D03*
X123045000Y-75325000D03*
X123045000Y-72785000D03*
X123045000Y-70245000D03*
X123045000Y-67705000D03*
X123045000Y-65165000D03*
X123045000Y-62625000D03*
%TD*%
D32*
X138250000Y-88500000D03*
X139500000Y-88500000D03*
X67500000Y-88500000D03*
X71250000Y-88500000D03*
X137000000Y-87500000D03*
X134500000Y-87500000D03*
X72500000Y-87500000D03*
X70000000Y-87500000D03*
X70000000Y-88500000D03*
X68750000Y-87500000D03*
X135750000Y-88500000D03*
X133250000Y-88500000D03*
X68750000Y-88500000D03*
X73750000Y-88500000D03*
X71250000Y-87500000D03*
X137000000Y-88500000D03*
X138250000Y-87500000D03*
X73750000Y-87500000D03*
X135750000Y-87500000D03*
X72500000Y-88500000D03*
X139500000Y-87500000D03*
X67500000Y-87500000D03*
X133250000Y-87500000D03*
X134500000Y-88500000D03*
X136250000Y-105275000D03*
X70250000Y-70725000D03*
X118750000Y-68750000D03*
X87750000Y-107250000D03*
D21*
X99925000Y-131455000D03*
X106575000Y-44545000D03*
X78925000Y-130355500D03*
X127575000Y-45644500D03*
M02*
