M48
; DRILL file {KiCad (6.0.6)} date Fri Jul  1 00:49:36 2022
; FORMAT={-:-/ absolute / inch / decimal}
; #@! TF.CreationDate,2022-07-01T00:49:36+05:00
; #@! TF.GenerationSoftware,Kicad,Pcbnew,(6.0.6)
; #@! TF.FileFunction,Plated,1,2,PTH
FMAT,2
INCH
; #@! TA.AperFunction,Plated,PTH,ViaDrill
T1C0.0157
; #@! TA.AperFunction,Plated,PTH,ComponentDrill
T2C0.0276
; #@! TA.AperFunction,Plated,PTH,ComponentDrill
T3C0.0315
; #@! TA.AperFunction,Plated,PTH,ComponentDrill
T4C0.0354
; #@! TA.AperFunction,Plated,PTH,ComponentDrill
T5C0.0394
; #@! TA.AperFunction,Plated,PTH,ComponentDrill
T6C0.0433
; #@! TA.AperFunction,Plated,PTH,ComponentDrill
T7C0.0472
; #@! TA.AperFunction,Plated,PTH,ComponentDrill
T8C0.0709
; #@! TA.AperFunction,Plated,PTH,ComponentDrill
T9C0.1378
%
G90
G05
T1
X2.6575Y-3.4449
X2.6575Y-3.4843
X2.7067Y-3.4449
X2.7067Y-3.4843
X2.7559Y-3.4449
X2.7559Y-3.4843
X2.7657Y-2.7844
X2.8051Y-3.4449
X2.8051Y-3.4843
X2.8543Y-3.4449
X2.8543Y-3.4843
X2.9035Y-3.4449
X2.9035Y-3.4843
X3.1073Y-5.1321
X3.4547Y-4.2224
X3.9341Y-5.1754
X4.1959Y-1.7537
X4.6752Y-2.7067
X5.0226Y-1.797
X5.2461Y-3.4449
X5.2461Y-3.4843
X5.2953Y-3.4449
X5.2953Y-3.4843
X5.3445Y-3.4449
X5.3445Y-3.4843
X5.3642Y-4.1447
X5.3937Y-3.4449
X5.3937Y-3.4843
X5.4429Y-3.4449
X5.4429Y-3.4843
X5.4921Y-3.4449
X5.4921Y-3.4843
T2
X2.2614Y-4.0748
X2.2614Y-4.2028
X2.2614Y-4.3406
X2.5614Y-4.0748
X2.5614Y-4.2028
X2.5614Y-4.3406
X3.6173Y-3.2677
X3.7569Y-4.2305
X3.7575Y-3.6614
X3.9173Y-3.2677
X4.0569Y-4.2305
X4.0575Y-3.6614
X4.0724Y-3.2677
X4.073Y-2.6986
X4.2126Y-3.6614
X4.3724Y-3.2677
X4.373Y-2.6986
X4.5126Y-3.6614
X5.5685Y-2.5886
X5.5685Y-2.7264
X5.5685Y-2.8543
X5.8685Y-2.5886
X5.8685Y-2.7264
X5.8685Y-2.8543
T3
X2.6841Y-2.4705
X2.7837Y-3.8636
X2.7837Y-3.9636
X2.7837Y-4.0636
X2.7837Y-4.1636
X2.7837Y-4.2636
X2.7837Y-4.3636
X2.7837Y-4.4636
X2.9793Y-2.4705
X3.0837Y-3.8636
X3.0837Y-3.9636
X3.0837Y-4.0636
X3.0837Y-4.1636
X3.0837Y-4.2636
X3.0837Y-4.3636
X3.0837Y-4.4636
X3.0906Y-2.4705
X3.0906Y-2.6476
X3.1732Y-2.9291
X3.2856Y-3.8636
X3.2856Y-3.9636
X3.2856Y-4.0636
X3.2856Y-4.1636
X3.2856Y-4.2636
X3.2856Y-4.3636
X3.2856Y-4.4636
X3.3228Y-2.9291
X3.3858Y-2.4705
X3.3858Y-2.6476
X3.5699Y-2.4656
X3.5699Y-2.5656
X3.5699Y-2.6656
X3.5699Y-2.7656
X3.5699Y-2.8656
X3.5699Y-2.9656
X3.5699Y-3.0656
X3.5856Y-3.8636
X3.5856Y-3.9636
X3.5856Y-4.0636
X3.5856Y-4.1636
X3.5856Y-4.2636
X3.5856Y-4.3636
X3.5856Y-4.4636
X3.7593Y-4.3781
X3.7598Y-4.0846
X3.7697Y-3.9075
X3.8699Y-2.4656
X3.8699Y-2.5656
X3.8699Y-2.6656
X3.8699Y-2.7656
X3.8699Y-2.8656
X3.8699Y-2.9656
X3.8699Y-3.0656
X4.0545Y-4.3781
X4.0551Y-4.0846
X4.065Y-3.0217
X4.065Y-3.9075
X4.0748Y-2.8445
X4.0754Y-2.551
X4.26Y-3.8636
X4.26Y-3.9636
X4.26Y-4.0636
X4.26Y-4.1636
X4.26Y-4.2636
X4.26Y-4.3636
X4.26Y-4.4636
X4.3602Y-3.0217
X4.3701Y-2.8445
X4.3707Y-2.551
X4.5443Y-2.4656
X4.5443Y-2.5656
X4.5443Y-2.6656
X4.5443Y-2.7656
X4.5443Y-2.8656
X4.5443Y-2.9656
X4.5443Y-3.0656
X4.56Y-3.8636
X4.56Y-3.9636
X4.56Y-4.0636
X4.56Y-4.1636
X4.56Y-4.2636
X4.56Y-4.3636
X4.56Y-4.4636
X4.7441Y-4.2815
X4.7441Y-4.4587
X4.8071Y-4.0
X4.8443Y-2.4656
X4.8443Y-2.5656
X4.8443Y-2.6656
X4.8443Y-2.7656
X4.8443Y-2.8656
X4.8443Y-2.9656
X4.8443Y-3.0656
X4.9567Y-4.0
X5.0394Y-4.2815
X5.0394Y-4.4587
X5.0463Y-2.4656
X5.0463Y-2.5656
X5.0463Y-2.6656
X5.0463Y-2.7656
X5.0463Y-2.8656
X5.0463Y-2.9656
X5.0463Y-3.0656
X5.1506Y-4.4587
X5.3463Y-2.4656
X5.3463Y-2.5656
X5.3463Y-2.6656
X5.3463Y-2.7656
X5.3463Y-2.8656
X5.3463Y-2.9656
X5.3463Y-3.0656
X5.4459Y-4.4587
T4
X2.2213Y-4.5768
X2.2311Y-4.7835
X2.6213Y-4.5768
X2.6311Y-4.7835
X5.4988Y-2.1457
X5.5087Y-2.3524
X5.8988Y-2.1457
X5.9087Y-2.3524
T5
X3.0217Y-3.6614
X3.1217Y-3.6614
X3.4148Y-3.6614
X3.5148Y-3.6614
X4.6152Y-3.2677
X4.7152Y-3.2677
X5.0083Y-3.2677
X5.1083Y-3.2677
T6
X2.3819Y-3.6319
X2.3819Y-3.8878
X2.5591Y-3.6319
X2.5591Y-3.8878
X5.5709Y-3.0413
X5.5709Y-3.2972
X5.748Y-3.0413
X5.748Y-3.2972
T7
X2.3268Y-1.6634
X2.3268Y-1.8012
X2.3268Y-1.939
X2.3268Y-2.0768
X2.3268Y-2.2146
X2.3268Y-2.3524
X2.3268Y-2.5827
X2.3268Y-2.7205
X2.6969Y-1.7224
X2.8346Y-1.7224
X2.9724Y-1.7224
X3.1102Y-1.7224
X3.248Y-1.7224
X3.3858Y-1.7224
X4.7441Y-5.2067
X4.8819Y-5.2067
X5.0197Y-5.2067
X5.1575Y-5.2067
X5.2953Y-5.2067
X5.4331Y-5.2067
X5.8031Y-4.2087
X5.8031Y-4.3465
X5.8031Y-4.5768
X5.8031Y-4.7146
X5.8031Y-4.8524
X5.8031Y-4.9902
X5.8031Y-5.128
X5.8031Y-5.2657
T8
X2.8553Y-4.8102
X2.8553Y-5.0268
X3.0207Y-4.8102
X3.0207Y-5.0268
X3.186Y-4.8102
X3.186Y-5.0268
X3.3514Y-4.8102
X3.3514Y-5.0268
X3.5167Y-4.8102
X3.5167Y-5.0268
X3.6821Y-4.8102
X3.6821Y-5.0268
X3.7864Y-1.9024
X3.7864Y-2.1189
X3.8474Y-4.8102
X3.8474Y-5.0268
X3.9518Y-1.9024
X3.9518Y-2.1189
X4.0128Y-4.8102
X4.0128Y-5.0268
X4.1171Y-1.9024
X4.1171Y-2.1189
X4.1781Y-4.8102
X4.1781Y-5.0268
X4.2825Y-1.9024
X4.2825Y-2.1189
X4.3435Y-4.8102
X4.3435Y-5.0268
X4.4478Y-1.9024
X4.4478Y-2.1189
X4.6132Y-1.9024
X4.6132Y-2.1189
X4.7785Y-1.9024
X4.7785Y-2.1189
X4.9439Y-1.9024
X4.9439Y-2.1189
X5.1093Y-1.9024
X5.1093Y-2.1189
X5.2746Y-1.9024
X5.2746Y-2.1189
T9
X2.3327Y-3.2087
X2.3327Y-5.2067
X5.7972Y-1.7224
X5.7972Y-3.7205
T0
M30
